<?xml version="1.0" encoding="UTF-8" standalone="no"?>
<svg
   xmlns:dc="http://purl.org/dc/elements/1.1/"
   xmlns:cc="http://creativecommons.org/ns#"
   xmlns:rdf="http://www.w3.org/1999/02/22-rdf-syntax-ns#"
   xmlns:svg="http://www.w3.org/2000/svg"
   xmlns="http://www.w3.org/2000/svg"
   xmlns:sodipodi="http://sodipodi.sourceforge.net/DTD/sodipodi-0.dtd"
   xmlns:inkscape="http://www.inkscape.org/namespaces/inkscape"
   width="48in"
   height="48in"
   viewBox="0 0 1219.2 1219.2"
   version="1.1"
   id="svg2023"
   sodipodi:docname="window-section.svg"
   inkscape:version="1.0.2 (e86c8708, 2021-01-15)">
  <defs
     id="defs2017">
    <rect
       x="643.12344"
       y="449.21688"
       width="484.76642"
       height="252.07854"
       id="rect2371" />
    <rect
       x="657.65486"
       y="49.078721"
       width="857.61472"
       height="146.48176"
       id="rect4504" />
    <rect
       x="708.69673"
       y="657.65486"
       width="596.79725"
       height="286.61974"
       id="rect4492" />
    <rect
       x="669.43375"
       y="661.58116"
       width="257.1725"
       height="159.01506"
       id="rect4486" />
  </defs>
  <sodipodi:namedview
     id="base"
     pagecolor="#ffffff"
     bordercolor="#666666"
     borderopacity="1.0"
     inkscape:pageopacity="0.0"
     inkscape:pageshadow="2"
     inkscape:zoom="0.19894201"
     inkscape:cx="2260.9823"
     inkscape:cy="3077.9896"
     inkscape:document-units="mm"
     inkscape:current-layer="layer1"
     inkscape:document-rotation="0"
     showgrid="false"
     units="in"
     inkscape:window-width="1608"
     inkscape:window-height="944"
     inkscape:window-x="72"
     inkscape:window-y="62"
     inkscape:window-maximized="0" />
  <metadata
     id="metadata2020">
    <rdf:RDF>
      <cc:Work
         rdf:about="">
        <dc:format>image/svg+xml</dc:format>
        <dc:type
           rdf:resource="http://purl.org/dc/dcmitype/StillImage" />
        <dc:title />
      </cc:Work>
    </rdf:RDF>
  </metadata>
  <g
     inkscape:label="Layer 1"
     inkscape:groupmode="layer"
     id="layer1">
    <rect
       style="opacity:0.99;fill:none;stroke:#000000;stroke-width:7.55906;stroke-miterlimit:4;stroke-dasharray:none"
       id="rect2588"
       width="72.929543"
       height="4545.9414"
       x="1644.9663"
       y="8.103282"
       transform="matrix(0.15778631,0,0,0.2342813,224.5857,117.61355)" />
    <g
       id="g2612"
       transform="translate(-13.641323,18.813376)">
      <rect
         style="opacity:0.99;fill:none;stroke:#000000;stroke-width:10.5576;stroke-miterlimit:4;stroke-dasharray:none"
         id="rect2586"
         width="2163.5764"
         height="251.20175"
         x="2131.1633"
         y="2584.947"
         transform="matrix(0.29247369,0,0,0.12270019,-112.93333,572.04753)" />
      <rect
         style="opacity:0.99;fill:none;stroke:#000000;stroke-width:7.55906;stroke-miterlimit:4;stroke-dasharray:none"
         id="rect2590"
         width="2187.8862"
         height="915.6709"
         x="1904.2714"
         y="3508.7212"
         transform="matrix(0.27766577,0,0,0.22009684,-18.869565,147.98498)" />
    </g>
    <rect
       style="opacity:0.99;fill:none;stroke:#000000;stroke-width:3.77953;stroke-miterlimit:4;stroke-dasharray:none"
       id="rect2630"
       width="436.31955"
       height="2705.1812"
       x="1404.949"
       y="392.68759"
       transform="matrix(0.26332139,0,0,0.26458333,5.2471043,36.8855)" />
    <rect
       style="opacity:0.99;fill:none;stroke:#000000;stroke-width:3.77953;stroke-miterlimit:4;stroke-dasharray:none"
       id="rect2632"
       width="438.95947"
       height="105.23001"
       x="1411.0844"
       y="2999.5564"
       transform="matrix(0.25816564,0,0,0.27669596,11.690735,-2.574818)" />
    <rect
       style="opacity:0.99;fill:none;stroke:#000000;stroke-width:3.77953;stroke-miterlimit:4;stroke-dasharray:none"
       id="rect2638"
       width="77.082306"
       height="2620.7983"
       x="1869.2458"
       y="409.49973"
       transform="matrix(0.23558703,0,0,0.26458333,55.733913,37.471199)" />
    <text
       xml:space="preserve"
       id="text4484"
       style="line-height:1.25;font-family:sans-serif;font-size:2.82222222000000000px;-inkscape-font-specification:'sans-serif, Normal';white-space:pre;shape-inside:url(#rect4486);" />
    <path
       style="fill:#ffffff;fill-opacity:1;stroke:none;stroke-width:7.55906;stroke-linecap:butt;stroke-linejoin:miter;stroke-miterlimit:4;stroke-dasharray:none;stroke-opacity:1"
       d="m 1023.929,1320.72 c 73.9264,-70.4968 91.52,-180.5573 163.235,-252.2724 28.6834,-28.6834 63.3555,-50.7508 96.4571,-74.19774 26.3146,-18.63952 50.459,-43.62949 81.6175,-51.93842 118.73,-31.66132 247.8648,5.53083 356.1492,51.93842 25.9885,11.13794 99.8786,53.10644 126.1362,59.35824 150.5846,35.8534 278.9538,-56.76764 356.1492,-178.07464 26.4953,-41.6355 49.7609,-106.06335 89.0373,-140.97572 71.0903,-63.19138 146.0313,-80.54607 230.013,-126.13618 12.2147,-6.63084 119.2873,-96.02893 148.3955,-74.19775 1.134,0.85047 0,39.58237 0,44.51865 -36.1949,-36.19496 -165.6271,-167.67289 -200.3339,-192.91415 -41.1869,-29.95412 -90.5903,-46.85602 -133.5559,-74.19775 -38.8129,-24.6991 -67.5638,-67.33741 -111.2966,-81.61753 -25.077,-8.1884 -525.9885,-73.63625 -534.2239,-74.19775 -151.5284,-10.33148 -445.5657,-49.14911 -593.582,74.19775 -93.4874,77.90619 -149.26048,192.2549 -222.59323,289.37123 -47.4528,62.8429 -86.41625,113.8392 -89.0373,200.33393 -3.08649,101.85414 110.07509,303.71311 148.3955,385.82831 23.5038,50.3653 38.71647,104.2109 59.35821,155.8153 15.96852,39.9214 29.67912,10.678 29.67912,59.3582 z"
       id="path4500"
       transform="matrix(-0.26458333,0,0,0.1596714,914.9443,36.047594)" />
    <text
       xml:space="preserve"
       id="text4502"
       style="font-size:50.79999999999999716px;line-height:1.25;font-family:sans-serif;-inkscape-font-specification:'sans-serif, Normal';white-space:pre;shape-inside:url(#rect4504);"
       transform="translate(-307.3358,-26.444982)"><tspan
         x="657.6543"
         y="95.424504"><tspan
           style="font-size:50.8px">Window and </tspan><tspan
           style="font-size:50.8px">countertop section
</tspan></tspan><tspan
         x="657.6543"
         y="158.9245"><tspan
           style="font-size:50.8px">April 11, 2021</tspan></tspan></text>
    <path
       style="fill:#ffffff;fill-opacity:1;stroke:none;stroke-width:7.55906;stroke-linecap:butt;stroke-linejoin:miter;stroke-miterlimit:4;stroke-dasharray:none;stroke-opacity:1"
       d="m 1023.929,1320.72 c 73.9264,-70.4968 91.52,-180.5573 163.235,-252.2724 28.6834,-28.6834 63.3555,-50.7508 96.4571,-74.19774 26.3146,-18.63952 50.459,-43.62949 81.6175,-51.93842 118.73,-31.66132 247.8648,5.53083 356.1492,51.93842 25.9885,11.13794 99.8786,53.10644 126.1362,59.35824 150.5846,35.8534 278.9538,-56.76764 356.1492,-178.07464 26.4953,-41.6355 49.7609,-106.06335 89.0373,-140.97572 71.0903,-63.19138 146.0313,-80.54607 230.013,-126.13618 12.2147,-6.63084 119.2873,-96.02893 148.3955,-74.19775 1.134,0.85047 0,39.58237 0,44.51865 -36.1949,-36.19496 -165.6271,-167.67289 -200.3339,-192.91415 -41.1869,-29.95412 -90.5903,-46.85602 -133.5559,-74.19775 -38.8129,-24.6991 -67.5638,-67.33741 -111.2966,-81.61753 -25.077,-8.1884 -525.9885,-73.63625 -534.2239,-74.19775 -151.5284,-10.33148 -445.5657,-49.14911 -593.582,74.19775 -93.4874,77.90619 -149.26048,192.2549 -222.59323,289.37123 -47.4528,62.8429 -86.41625,113.8392 -89.0373,200.33393 -3.08649,101.85414 110.07509,303.71311 148.3955,385.82831 23.5038,50.3653 38.71647,104.2109 59.35821,155.8153 15.96852,39.9214 29.67912,10.678 29.67912,59.3582 z"
       id="path4500-5"
       transform="matrix(-0.44994435,0,0,-0.1596714,1522.0001,1238.2179)" />
    <rect
       style="opacity:0.99;fill:none;stroke:#000000;stroke-width:3.77953;stroke-miterlimit:4;stroke-dasharray:none"
       id="rect2365"
       width="217.56262"
       height="124.63387"
       x="1853.1088"
       y="3171.6038"
       transform="matrix(0.20082031,0,0,0.19779867,118.03931,211.99679)" />
    <text
       xml:space="preserve"
       id="text2369"
       style="font-size:50.79999999999999716px;line-height:0;font-family:sans-serif;-inkscape-font-specification:'sans-serif, Normal';white-space:pre;shape-inside:url(#rect2371);"
       transform="translate(27.328162,159.58564)"><tspan
         x="643.12305"
         y="473.65999"><tspan
           style="font-size:25.4px;line-height:1.35">Window stool 1&quot; thick.
</tspan></tspan><tspan
         x="643.12305"
         y="507.95"><tspan
           style="font-size:25.4px;line-height:1.35">
</tspan></tspan><tspan
         x="643.12305"
         y="542.24"><tspan
           style="font-size:25.4px;line-height:1.35">1.75&quot; wide from window frame. </tspan></tspan><tspan
         x="643.12305"
         y="576.52998"><tspan
           style="font-size:25.4px;line-height:1.35">Extends .75&quot; beyond side casing.</tspan></tspan></text>
    <path
       style="fill:none;stroke:#000000;stroke-width:4.00343456;stroke-linecap:butt;stroke-linejoin:miter;stroke-miterlimit:4;stroke-dasharray:none;stroke-opacity:1"
       d="m 2760.4966,2784.9258 -647.3731,293.1501"
       id="path2375"
       transform="matrix(0.24408886,0,0,0.25561514,45.951271,47.569501)" />
  </g>
</svg>
